<svg xmlns="http://www.w3.org/2000/svg" xmlns:xlink="http://www.w3.org/1999/xlink" xmlns:inkscape="http://www.inkscape.org/namespaces/inkscape" version="1.1" width="231" height="137" viewBox="0 0 231 137">
<defs>
<path id="font_1_49" d="M.7679901 .27514649H.71199038C.6879883 .13204956 .6519928 .051986696 .46998597 .051986696H.3039856V.32714845H.3639984C.45799256 .32714845 .47499085 .29214479 .47499085 .21209717H.5309906V.49414063H.47499085C.47499085 .41389466 .45799256 .37890626 .3639984 .37890626H.3039856V.6279297H.46699525C.61099246 .6279297 .6599884 .57891848 .6779938 .4369049H.73399356L.70098879 .6799164H.04699707V.6279297H.15499878V.051986696H.04699707V0H.71899417L.7679901 .27514649Z"/>
<path id="font_2_57" d="M.5 .1640625V.197052H.3939972V.64682009C.3939972 .6668091 .3939972 .6748047 .37298585 .6748047 .3600006 .6748047 .35899354 .6737976 .34899903 .6598053L.02999878 .197052V.1640625H.31199647V.08100891C.31199647 .04399109 .30899049 .032989503 .23199463 .032989503H.20899964V0L.35299684 .0029907227 .49699403 0V.032989503H.47399903C.39698792 .032989503 .3939972 .04399109 .3939972 .08100891V.1640625H.5M.31900025 .197052H.06498718L.31900025 .56585696V.197052Z"/>
<path id="font_2_107" d="M.47698976 .17900086H.44599916C.44299317 .15899658 .43499757 .10899353 .4229889 .08999634 .4169922 .08198547 .34098817 .08198547 .32499696 .08198547H.14698792L.28199769 .20399475C.2979889 .2190094 .33999635 .2519989 .35598756 .26600648 .41799928 .3230133 .47698976 .37802125 .47698976 .46902467 .47698976 .58802798 .3769989 .66503909 .2519989 .66503909 .13198853 .6651764 .052993776 .574173 .052993776 .48516847 .052993776 .4361725 .09199524 .4291687 .10598755 .4291687 .1269989 .4291687 .1579895 .4441681 .1579895 .48217774 .1579895 .5341797 .10798645 .5341797 .09599304 .5341797 .125 .6070709 .19198609 .6320343 .24099732 .6320343 .33399964 .6320343 .38198854 .55314639 .38198854 .46917726 .38198854 .36517335 .30899049 .2891693 .19099427 .16816712L.06498718 .03817749C.052993776 .026992798 .052993776 .024993897 .052993776 0H.44799806L.47698976 .17900086Z"/>
<path id="font_1_27" d="M.8759918 0V.051986696H.7779999L.5079956 .67515566C.49699403 .7011719 .48199464 .7011719 .46099855 .7011719 .43899537 .7011719 .42399598 .7011719 .41299439 .67515566L.1519928 .07400513C.14498902 .058929445 .14399719 .057922365 .11999512 .05491638 .09399414 .051986696 .09199524 .051986696 .068984989 .051986696H.04499817V0C.09599304 .0029296876 .125 .0029296876 .17098999 .0029296876L.30699159 0V.051986696C.27999879 .051986696 .24798584 .051986696 .21899414 .06100464L.22399903 .07501221 .2749939 .19116211H.56199648L.6230011 .051986696H.5299988V0C.5669861 .0029296876 .66600039 .0029296876 .70799258 .0029296876 .74598696 .0029907227 .8129883 .0029907227 .8759918 0M.5399933 .24316406H.2979889L.4189911 .52215579 .5399933 .24316406Z"/>
<path id="font_2_100" d="M.5149994 .6435547H.26098634C.23599243 .6435547 .20498657 .64456179 .17999268 .6465759 .12799073 .65060427 .1269989 .65966799 .12399292 .67578127H.09298706L.05899048 .46455384H.08999634C.09199524 .47955323 .102996829 .54855349 .116989139 .5565491 .12799073 .56155398 .20298767 .56155398 .21798706 .56155398H.42999269L.32699586 .42355348C.21299744 .27153016 .18899536 .11351013 .18899536 .03451538 .18899536 .024505616 .18899536-.021484375 .23599243-.021484375 .2829895-.021484375 .2829895 .023513794 .2829895 .035507204V.08351135C.2829895 .2275238 .30699159 .34553529 .35598756 .41053773L.5059967 .608551C.5149994 .6195526 .5149994 .6215515 .5149994 .6435547Z"/>
</defs>
<path transform="matrix(1.00003,0,0,-1.00002,115.4859,72.66614)" stroke-width=".3985" stroke-linecap="butt" stroke-miterlimit="10" stroke-linejoin="miter" fill="none" stroke="#000000" d="M-113.38724-62.36288V70.867H113.38724V-62.36288ZM113.38724 70.867"/>
<path transform="matrix(1.00003,0,0,-1.00002,115.4859,72.66614)" d="M21.26013 0C21.26013 31.31142-4.12207 56.69363-35.43349 56.69363-66.74492 56.69363-92.12712 31.31142-92.12712 0-92.12712-31.31142-66.74492-56.69363-35.43349-56.69363-4.12207-56.69363 21.26013-31.31142 21.26013 0ZM-35.43349 0" fill="#8080ff" fill-opacity=".5"/>
<path transform="matrix(1.00003,0,0,-1.00002,115.4859,72.66614)" stroke-width=".3985" stroke-linecap="butt" stroke-miterlimit="10" stroke-linejoin="miter" fill="none" stroke="#000000" d="M21.26013 0C21.26013 31.31142-4.12207 56.69363-35.43349 56.69363-66.74492 56.69363-92.12712 31.31142-92.12712 0-92.12712-31.31142-66.74492-56.69363-35.43349-56.69363-4.12207-56.69363 21.26013-31.31142 21.26013 0ZM-35.43349 0"/>
<path transform="matrix(1.00003,0,0,-1.00002,115.4859,72.66614)" d="M92.12712 0C92.12712 31.31142 66.74492 56.69363 35.43349 56.69363 4.12207 56.69363-21.26013 31.31142-21.26013 0-21.26013-31.31142 4.12207-56.69363 35.43349-56.69363 66.74492-56.69363 92.12712-31.31142 92.12712 0ZM35.43349 0" fill="#ff8080" fill-opacity=".5"/>
<path transform="matrix(1.00003,0,0,-1.00002,115.4859,72.66614)" stroke-width=".3985" stroke-linecap="butt" stroke-miterlimit="10" stroke-linejoin="miter" fill="none" stroke="#000000" d="M92.12712 0C92.12712 31.31142 66.74492 56.69363 35.43349 56.69363 4.12207 56.69363-21.26013 31.31142-21.26013 0-21.26013-31.31142 4.12207-56.69363 35.43349-56.69363 66.74492-56.69363 92.12712-31.31142 92.12712 0ZM35.43349 0"/>
<use data-text="E" xlink:href="#font_1_49" transform="matrix(7.9703395,0,0,-7.9702599,55.590105,47.028627)"/>
<use data-text="4" xlink:href="#font_2_57" transform="matrix(7.9703395,0,0,-7.9702599,111.25378,92.36453)"/>
<use data-text="2" xlink:href="#font_2_107" transform="matrix(7.9703395,0,0,-7.9702599,115.486019,92.36453)"/>
<use data-text="A" xlink:href="#font_1_27" transform="matrix(7.9703395,0,0,-7.9702599,168.5065,47.112627)"/>
<use data-text="7" xlink:href="#font_2_100" transform="matrix(7.9703395,0,0,-7.9702599,155.89112,92.28553)"/>
</svg>
